<?xml version="1.0" encoding="utf-8"?>
<!-- Generator: Adobe Illustrator 15.0.0, SVG Export Plug-In . SVG Version: 6.00 Build 0)  -->
<!DOCTYPE svg PUBLIC "-//W3C//DTD SVG 1.1//EN" "http://www.w3.org/Graphics/SVG/1.1/DTD/svg11.dtd">
<svg version="1.1" id="Calque_2" xmlns="http://www.w3.org/2000/svg" xmlns:xlink="http://www.w3.org/1999/xlink" x="0px" y="0px"
	 width="263.6px" height="56.693px" viewBox="0 8.503 263.6 56.693" enable-background="new 0 8.503 263.6 56.693"
	 xml:space="preserve">
<g>
	<path fill="#FFFFFF" d="M67.2,38.799l1.1-0.6c1,2,2.7,3.801,6.3,3.801c2.9,0,5.3-1.701,5.3-4.5c0-2.601-1.399-4-4.5-5.4l-2.1-0.9
		c-3.1-1.4-4.6-2.9-4.6-5.7c0-3.1,2.5-5,5.5-5s4.6,1.5,5.699,3.2l-1,0.7C78,22.9,76.7,21.7,74.3,21.7c-2.6,0-4.2,1.5-4.2,3.8
		c0,2.2,1.101,3.3,3.9,4.6l2.1,0.9c3.601,1.6,5.3,3.5,5.3,6.6c0,3.5-2.699,5.699-6.6,5.699C70.5,43.2,68.3,41,67.2,38.799z"/>
	<path fill="#FFFFFF" d="M85.1,31.8c0-6.8,5.101-11.4,11.4-11.4S107.9,25,107.9,31.8c0,6.8-5.1,11.4-11.399,11.4
		S85.1,38.6,85.1,31.8z M106.5,31.8c0-5.8-4.3-10.2-10-10.2s-10,4.4-10,10.2C86.5,37.6,90.8,42,96.5,42
		C102.3,42,106.5,37.6,106.5,31.8z"/>
	<path fill="#FFFFFF" d="M113.3,20.7h1.3V43h-1.3V20.7z"/>
	<path fill="#FFFFFF" d="M121.5,20.7h13v1.2h-11.7v11.9h10.4V35h-10.4v6.799h12.1V43h-13.5V20.7H121.5z"/>
	<path fill="#FFFFFF" d="M148.2,20.7h4.699c7.7,0,12.2,4.3,12.2,11.1c0,6.8-4.5,11.1-12.2,11.1H148.2V20.7z M152.8,41.7
		c7.4,0,10.9-4.1,10.9-9.9c0-5.8-3.601-9.9-10.9-9.9h-3.2v19.8H152.8z"/>
	<path fill="#FFFFFF" d="M170.5,20.7h1.3V43h-1.3V20.7z"/>
	<path fill="#FFFFFF" d="M176.8,20.7h1.4l7.199,18.2c0.301,0.7,0.601,2,0.601,2s0.3-1.3,0.6-2l7.2-18.2h1.3l-9,22.5H185.7
		L176.8,20.7z"/>
	<path fill="#FFFFFF" d="M200.1,20.7h1.3V43h-1.3V20.7z"/>
	<path fill="#FFFFFF" d="M210.5,24.8c-0.4-0.6-1-1.5-1-1.5s0.1,1,0.1,1.7v18h-1.2V20.4h0.4L223,38.9c0.399,0.601,1,1.5,1,1.5
		s-0.101-1-0.101-1.7v-18h1.2v22.5H224.7L210.5,24.8z"/>
	<path fill="#FFFFFF" d="M231.9,20.7h13v1.2H233.2v11.9H243.6V35H233.2v6.799h12.1V43h-13.5V20.7H231.9z"/>
</g>
<g>
	<g>
		<g>
			
				<linearGradient id="SVGID_1_" gradientUnits="userSpaceOnUse" x1="26.2454" y1="32.4648" x2="37.4692" y2="32.4648" gradientTransform="matrix(1 0 0 -1 0.04 72.7646)">
				<stop  offset="0" style="stop-color:#AD7A36"/>
				<stop  offset="0.2286" style="stop-color:#E7BA67"/>
				<stop  offset="0.4501" style="stop-color:#FFF1AD"/>
				<stop  offset="0.7333" style="stop-color:#A67D2F"/>
				<stop  offset="1" style="stop-color:#FFF1AD"/>
			</linearGradient>
			<path fill="url(#SVGID_1_)" d="M31.9,54.9l0.301-1.5l5.3-29.2l-7.7,2.1l3.9-0.6L29,53.4c0,0-0.3,1.899-0.4,1.899
				c0,0.201-0.7,0.301-0.8,0.4c-0.5,0.2-1.1,0.4-1.6,0.7"/>
			<path fill="#615557" d="M28.4,49.799"/>
			
				<linearGradient id="SVGID_2_" gradientUnits="userSpaceOnUse" x1="18.76" y1="34.0112" x2="57.8987" y2="34.0112" gradientTransform="matrix(1 0 0 -1 0.04 72.7646)">
				<stop  offset="0" style="stop-color:#AD7A36"/>
				<stop  offset="0.2286" style="stop-color:#E7BA67"/>
				<stop  offset="0.4501" style="stop-color:#FFF1AD"/>
				<stop  offset="0.7333" style="stop-color:#A67D2F"/>
				<stop  offset="1" style="stop-color:#FFF1AD"/>
			</linearGradient>
			<path fill="url(#SVGID_2_)" d="M38.3,39.6c-2.9,0.4-6.2,0.5-9.1-0.1C27.8,39.2,26.4,38.7,25.1,38.1c-1.6-0.8-3-2.3-3.399-4.1
				c-0.2-0.8-0.2-1.6,0-2.4c0.899-3.4,4.399-6,7.6-7c0.9-0.3,1.9-0.5,2.9-0.7c3.699-0.5,7.6-0.3,11.3,0.7c1,0.3,2,0.6,2.899,1
				c2.9,1.3,5.5,2.9,6.801,5.9c0.3,0.7,0.6,1.6,0.699,2.4c0.801,4.399-1.1,9-3.899,12.3c-2.601,3.1-5.3,5.7-9.3,6.6
				C39.6,53.1,36.7,53.5,35.6,53.5l-3,1.299c3.4-0.1,6.7-0.699,9.8-1.899c4.4-1.7,8.601-4.2,11.7-7.8c2.3-2.801,4.101-6.6,3.8-10.3
				c-0.3-3.7-2.5-7-5.699-9c-1.7-1-3.7-1.9-5.601-2.3c-4.3-1-8.8-1-13.1-0.3c-2.601,0.4-5.2,1-7.601,2.2c-2,0.9-4.1,2.2-5.5,4
				c-1.5,2-2.399,5-0.899,7.2c2.1,3.199,6.6,4.6,10.2,5.1c1.199,0.2,2.5,0.2,3.699,0.2C36.9,41.9,40.7,40.7,43.7,39"/>
		</g>
	</g>
	
		<linearGradient id="SVGID_3_" gradientUnits="userSpaceOnUse" x1="54.6628" y1="55.5962" x2="86.6038" y2="55.5962" gradientTransform="matrix(0.9982 0.0606 0.0606 -0.9982 -36.4882 89.0345)">
		<stop  offset="0" style="stop-color:#AD7A36"/>
		<stop  offset="0.2286" style="stop-color:#E7BA67"/>
		<stop  offset="0.4501" style="stop-color:#FFF1AD"/>
		<stop  offset="0.7333" style="stop-color:#A67D2F"/>
		<stop  offset="1" style="stop-color:#FFF1AD"/>
	</linearGradient>
	<path fill="url(#SVGID_3_)" d="M36.1,17.3c2.5,0.3,5.2,1.1,7.4,2.3c1.3,0.7,2.5,1.4,3.7,2.3L46.3,28c0.4-0.9,0.9-1.8,1.4-2.7
		c1-1.9,2.1-3.7,3.399-5.4l0.9-1.3L51.4,18.3L50.5,19c-0.8-0.5-1.7-1-2.5-1.4c-3-1.6-6.2-2.7-9.601-2.7C37.3,14.9,36,15,35,15.5
		c-4.9,2.8-5.8,8.1-5.8,8.1c-0.301,1.5-0.4,3.1,0.1,4.6c0.9,3.1,3.3,5.5,5.8,7.4c1.9,1.5,3.9,2.8,5.8,4.199
		c0.601,0.4,1.2,0.9,1.801,1.301c0.899,0.6,1.8,1.199,2.6,1.8c1.2,1,2.5,1.899,3.7,3c0.7,0.7,1.399,1.3,1.899,2.2
		C52.1,50,52,53,50.5,54.7c-1.4,1.7-3.601,2.5-5.8,2.7c-4,0.5-7.801,0.101-11.601-1.3c-1.7-0.6-3.3-1.2-4.899-2
		C27.4,53.7,26.6,53.299,25.9,52.9c-0.399-0.2-0.8-0.5-1.1-0.7c-0.2-0.1-1-0.5-1-0.699l-0.4-3l-3.1,6.1c0.9,0.699,1.8,1.3,2.8,1.9
		C25.5,57.9,28.2,58.9,30.8,59.7c1.4,0.4,2.8,0.7,4.2,0.9c4.399,0.6,9.3,0.3,13-2.5c2.3-1.801,4.1-4.4,4.5-7.4
		c0.3-1.9-0.101-3.9-0.8-5.6C50.6,42.5,48.6,40.5,46.4,38.799C45.4,38,44.3,37.2,43.2,36.4c-1.9-1.5-3.801-2.9-5.7-4.4
		c-1.7-1.3-3.2-2.7-4.601-4.4c-1.199-1.4-2.199-3-2.199-4.9c0-0.5,0-1.1,0.1-1.6C30.9,21.1,32.2,16.9,36.1,17.3z"/>
</g>
<g>
	<path fill="#FFFFFF" d="M72.9,54.6c0,0.1,0,0.1,0.101,0.199c0.1-0.199,0.1-0.299,0.2-0.399l3.1-5c0.1-0.101,0.1-0.101,0.2-0.2
		c0.1-0.1,0.1,0,0.2,0h0.8l-1,7.9h-0.9l0.7-5.801c0-0.1,0-0.199,0-0.199c0-0.1,0-0.2,0.1-0.301l-3.1,4.9c-0.1,0.2-0.2,0.2-0.4,0.2
		h-0.1c-0.2,0-0.3-0.101-0.3-0.2l-1.9-5c0,0.1,0,0.2,0,0.301c0,0.1,0,0.199,0,0.199L69.9,57H69l1-7.9h0.8c0.1,0,0.2,0,0.2,0
		s0.1,0.1,0.1,0.199l1.9,5C72.9,54.5,72.9,54.6,72.9,54.6z"/>
	<path fill="#FFFFFF" d="M80.3,57.2c-0.3,0-0.6-0.1-0.8-0.199C79.3,56.9,79,56.7,78.8,56.5c-0.2-0.201-0.3-0.4-0.4-0.701
		c-0.1-0.299-0.199-0.6-0.199-1c0-0.5,0.1-0.899,0.199-1.299C78.5,53.1,78.7,52.7,79,52.4s0.6-0.601,0.899-0.7
		C80.2,51.5,80.6,51.4,81,51.4c0.3,0,0.6,0.101,0.8,0.2c0.3,0.1,0.5,0.3,0.7,0.5c0.2,0.199,0.3,0.4,0.399,0.699
		c0.101,0.301,0.2,0.601,0.2,1c0,0.5-0.1,0.9-0.2,1.301c-0.1,0.4-0.3,0.8-0.6,1.1c-0.3,0.301-0.6,0.6-0.9,0.7
		C81.1,57.2,80.7,57.2,80.3,57.2z M80.4,56.5c0.301,0,0.5-0.101,0.7-0.201c0.2-0.1,0.4-0.299,0.601-0.6C81.9,55.5,82,55.2,82.1,54.9
		c0.101-0.3,0.101-0.7,0.101-1c0-0.5-0.101-0.899-0.301-1.2c-0.199-0.3-0.5-0.4-0.899-0.4c-0.3,0-0.5,0.101-0.7,0.201
		c-0.2,0.1-0.4,0.299-0.6,0.6c-0.2,0.199-0.301,0.5-0.4,0.8s-0.1,0.7-0.1,1c0,0.5,0.1,0.899,0.3,1.2C79.7,56.299,80,56.5,80.4,56.5z
		"/>
	<path fill="#FFFFFF" d="M84.1,57.2l0.7-5.6h0.5c0.2,0,0.3,0.1,0.3,0.3L85.5,53c0.3-0.5,0.6-0.9,1-1.101
		c0.399-0.2,0.8-0.399,1.2-0.399c0.399,0,0.699,0.1,1,0.399c0.199,0.3,0.3,0.7,0.3,1.2c0,0.1,0,0.1,0,0.199c0,0.101,0,0.201,0,0.201
		L88.6,57h-1l0.4-3.5c0-0.101,0-0.101,0-0.201c0-0.1,0-0.1,0-0.199c0-0.301-0.101-0.5-0.2-0.7c-0.1-0.101-0.3-0.2-0.5-0.2
		s-0.4,0-0.5,0.1c-0.2,0.101-0.4,0.201-0.5,0.4c-0.2,0.2-0.3,0.4-0.5,0.6c-0.1,0.201-0.3,0.5-0.4,0.801l-0.3,2.8h-1V57.2z"/>
	<path fill="#FFFFFF" d="M92.6,57.2l0.7-5.6h0.5c0.1,0,0.2,0,0.2,0.1c0.1,0,0.1,0.1,0.1,0.2c0,0,0,0,0,0.101v0.1v0.1l0,0l-0.1,1
		c0.2-0.5,0.5-0.9,0.8-1.199c0.3-0.301,0.6-0.4,0.9-0.4c0.199,0,0.3,0,0.5,0.1L96,52.6c-0.2-0.1-0.3-0.1-0.5-0.1
		c-0.4,0-0.7,0.199-1,0.5c-0.3,0.299-0.5,0.899-0.7,1.6l-0.3,2.6H92.6z"/>
	<path fill="#FFFFFF" d="M98.5,51.6l-0.7,5.6h-1l0.7-5.6H98.5z M98.9,49.799c0,0.101,0,0.201-0.1,0.301c0,0.1-0.1,0.199-0.2,0.199
		C98.5,50.4,98.5,50.4,98.4,50.5c-0.1,0-0.199,0.1-0.3,0.1c-0.1,0-0.2,0-0.2-0.1c-0.1,0-0.199-0.101-0.199-0.201
		C97.6,50.2,97.6,50.2,97.6,50.1s-0.1-0.2-0.1-0.301c0-0.1,0-0.199,0.1-0.299C97.7,49.4,97.7,49.299,97.7,49.299
		c0.1-0.1,0.1-0.1,0.199-0.199C98,49,98.1,49,98.1,49c0.101,0,0.2,0,0.3,0.1c0.101,0,0.2,0.1,0.2,0.199
		C98.7,49.4,98.7,49.4,98.8,49.5C98.8,49.7,98.9,49.799,98.9,49.799z"/>
	<path fill="#FFFFFF" d="M100.2,56.1L100.2,56.1c0-0.1,0-0.2,0-0.2c0-0.101,0-0.2,0-0.3s0-0.2,0-0.4l0.3-2.8H100H99.9v-0.101
		c0,0,0,0,0-0.1v-0.1V52V51.9l0.9-0.101l0.4-1.699c0-0.1,0-0.1,0.1-0.1l0.1-0.101h0.5l-0.199,1.899h1.5L103.1,52.5h-1.5l-0.3,2.699
		c0,0.2,0,0.301,0,0.4s0,0.199,0,0.199c0,0.101,0,0.101,0,0.101l0,0c0,0.2,0,0.3,0.1,0.399c0.101,0.101,0.2,0.101,0.4,0.101
		c0.1,0,0.2,0,0.3,0c0.101,0,0.101-0.101,0.2-0.101s0.1-0.1,0.1-0.1h0.101h0.1c0,0,0,0,0.101,0.1l0.199,0.5
		C102.7,57,102.5,57.1,102.3,57.2s-0.5,0.1-0.7,0.1c-0.399,0-0.6-0.1-0.8-0.299C100.3,56.799,100.2,56.5,100.2,56.1z"/>
	<path fill="#FFFFFF" d="M105.3,51.6l-0.4,3.5c0,0.1,0,0.1,0,0.199c0,0.101,0,0.101,0,0.201c0,0.299,0.101,0.5,0.2,0.699
		c0.101,0.1,0.3,0.2,0.5,0.2s0.3,0,0.5-0.101c0.2-0.1,0.4-0.199,0.5-0.399c0.2-0.2,0.3-0.399,0.5-0.601
		c0.101-0.199,0.3-0.5,0.4-0.799l0.3-2.9h1l-0.7,5.6h-0.5c-0.1,0-0.2,0-0.3-0.1s-0.1-0.1-0.1-0.2c0,0,0,0,0-0.101
		c0-0.1,0-0.1,0-0.199s0-0.1,0-0.2s0-0.101,0-0.101V55.9c-0.301,0.5-0.601,0.8-1,1.101c-0.4,0.199-0.7,0.399-1.101,0.399
		c-0.399,0-0.7-0.101-1-0.399c-0.2-0.301-0.3-0.701-0.3-1.201c0-0.1,0-0.1,0-0.199s0-0.2,0-0.2l0.4-3.5h1.1V51.6z"/>
	<path fill="#FFFFFF" d="M114.2,52.799c0,0.201,0,0.5-0.101,0.701c-0.1,0.199-0.3,0.399-0.5,0.5c-0.3,0.199-0.6,0.299-1.1,0.399
		s-1.101,0.2-1.8,0.3v0.1V54.9c0,0.5,0.1,0.899,0.3,1.101c0.2,0.299,0.5,0.399,1,0.399c0.2,0,0.3,0,0.5-0.101
		c0.1,0,0.3-0.1,0.399-0.1C113,56.1,113.1,56.1,113.2,56c0.1-0.101,0.199-0.101,0.199-0.201c0.101-0.1,0.101-0.1,0.2-0.1
		c0.101,0,0.101-0.1,0.2-0.1s0.1,0,0.2,0.1L114.2,56c-0.2,0.199-0.4,0.399-0.5,0.5c-0.2,0.1-0.4,0.299-0.5,0.299
		C113,56.9,112.8,57,112.6,57s-0.399,0.1-0.7,0.1c-0.3,0-0.6-0.1-0.899-0.2s-0.5-0.3-0.601-0.5c-0.1-0.2-0.3-0.399-0.399-0.7
		c-0.101-0.3-0.101-0.6-0.101-0.9c0-0.299,0-0.6,0.101-0.899c0.1-0.3,0.1-0.601,0.3-0.8c0.1-0.301,0.3-0.5,0.4-0.7
		c0.199-0.2,0.399-0.399,0.6-0.601c0.2-0.199,0.5-0.299,0.7-0.399s0.5-0.101,0.8-0.101s0.5,0,0.7,0.101s0.399,0.2,0.5,0.3
		c0.1,0.1,0.2,0.301,0.3,0.4C114.2,52.5,114.2,52.7,114.2,52.799z M112.5,52.2c-0.2,0-0.4,0-0.601,0.1
		c-0.199,0.101-0.399,0.201-0.5,0.4c-0.1,0.2-0.3,0.4-0.399,0.6c-0.101,0.201-0.2,0.5-0.2,0.701c0.6-0.101,1-0.101,1.4-0.201
		c0.3-0.1,0.6-0.199,0.8-0.299c0.2-0.101,0.3-0.201,0.399-0.301c0.101-0.1,0.101-0.199,0.101-0.4c0-0.1,0-0.1,0-0.199
		s-0.101-0.1-0.101-0.2c-0.1-0.101-0.1-0.101-0.199-0.101C112.8,52.2,112.7,52.2,112.5,52.2z"/>
	<path fill="#FFFFFF" d="M115.2,57.2l1-8.1h1l-1,8.1H115.2z"/>
	<path fill="#FFFFFF" d="M120.5,57.2l1-7.9h2.3c0.4,0,0.8,0,1.1,0.101c0.301,0.101,0.5,0.2,0.7,0.399C125.8,50,125.9,50.1,126,50.4
		c0.1,0.2,0.1,0.5,0.1,0.7c0,0.199,0,0.5-0.1,0.699c-0.101,0.201-0.2,0.4-0.3,0.601c-0.101,0.2-0.301,0.3-0.5,0.5
		c-0.2,0.101-0.4,0.3-0.7,0.3c0.5,0.1,0.8,0.301,1.1,0.6c0.2,0.301,0.4,0.601,0.4,1c0,0.4-0.101,0.701-0.2,1
		c-0.1,0.301-0.3,0.601-0.6,0.801c-0.2,0.199-0.5,0.4-0.9,0.5s-0.8,0.199-1.2,0.199h-2.6V57.2z M122,53.6l-0.3,2.8h1.6
		c0.3,0,0.5,0,0.8-0.101c0.2-0.1,0.4-0.199,0.5-0.299c0.101-0.101,0.3-0.301,0.3-0.5C125,55.299,125,55.1,125,54.799
		c0-0.299-0.101-0.6-0.4-0.799c-0.2-0.201-0.6-0.301-1.1-0.301H122V53.6z M122.1,52.799h1.3c0.301,0,0.601,0,0.801-0.1
		c0.199-0.1,0.399-0.199,0.6-0.3c0.1-0.101,0.3-0.3,0.3-0.5c0.101-0.2,0.101-0.399,0.101-0.7c0-0.4-0.101-0.699-0.301-0.8
		c-0.199-0.2-0.6-0.3-1.1-0.3h-1.3L122.1,52.799z"/>
	<path fill="#FFFFFF" d="M131.7,52.799c0,0.201,0,0.5-0.101,0.701c-0.1,0.199-0.3,0.399-0.5,0.5c-0.3,0.199-0.6,0.299-1.1,0.399
		s-1.101,0.2-1.8,0.3v0.1V54.9c0,0.5,0.1,0.899,0.3,1.101c0.2,0.299,0.5,0.399,1,0.399c0.2,0,0.3,0,0.5-0.101
		c0.1,0,0.3-0.1,0.399-0.1c0.101-0.1,0.2-0.1,0.301-0.199c0.1-0.101,0.199-0.101,0.199-0.201c0.101-0.1,0.101-0.1,0.2-0.1
		c0.101,0,0.101-0.1,0.2-0.1s0.1,0,0.2,0.1L131.7,56c-0.2,0.199-0.4,0.399-0.5,0.5c-0.2,0.1-0.4,0.299-0.5,0.299
		C130.5,56.9,130.3,57,130.1,57s-0.399,0.1-0.7,0.1c-0.3,0-0.6-0.1-0.899-0.2s-0.5-0.3-0.601-0.5c-0.1-0.2-0.3-0.399-0.399-0.7
		c-0.101-0.3-0.101-0.6-0.101-0.9c0-0.299,0-0.6,0.101-0.899c0.1-0.3,0.1-0.601,0.3-0.8c0.1-0.301,0.3-0.5,0.4-0.7
		c0.199-0.2,0.399-0.399,0.6-0.601c0.2-0.199,0.5-0.299,0.7-0.399s0.5-0.101,0.8-0.101s0.5,0,0.7,0.101s0.399,0.2,0.5,0.3
		c0.1,0.1,0.2,0.301,0.3,0.4C131.6,52.5,131.7,52.7,131.7,52.799z M130,52.2c-0.2,0-0.4,0-0.601,0.1C129.2,52.4,129,52.5,128.9,52.7
		c-0.1,0.2-0.3,0.4-0.399,0.6c-0.101,0.201-0.2,0.5-0.2,0.701c0.6-0.101,1-0.101,1.4-0.201c0.3-0.1,0.6-0.199,0.8-0.299
		c0.2-0.101,0.3-0.201,0.399-0.301C131,53.1,131,53,131,52.799c0-0.1,0-0.1,0-0.199s-0.101-0.1-0.101-0.2
		c-0.1-0.101-0.1-0.101-0.199-0.101C130.3,52.2,130.1,52.2,130,52.2z"/>
	<path fill="#FFFFFF" d="M136.7,57.2h-0.5c-0.101,0-0.2,0-0.301-0.1c0-0.1-0.1-0.1-0.1-0.2l0.1-1.101
		c-0.1,0.201-0.3,0.4-0.399,0.601c-0.2,0.2-0.3,0.399-0.5,0.5s-0.3,0.2-0.5,0.3s-0.4,0.1-0.601,0.1c-0.199,0-0.399,0-0.6-0.1
		s-0.3-0.199-0.5-0.4c-0.2-0.199-0.2-0.399-0.3-0.6C132.4,56,132.4,55.7,132.4,55.4s0-0.7,0.101-1c0.1-0.3,0.2-0.601,0.399-0.899
		c0.2-0.301,0.301-0.5,0.5-0.801c0.2-0.199,0.4-0.4,0.7-0.6c0.3-0.2,0.5-0.301,0.8-0.4c0.301-0.1,0.601-0.1,0.9-0.1
		c0.2,0,0.5,0,0.7,0.1s0.399,0.1,0.7,0.2L136.7,57.2z M134.3,56.4c0.2,0,0.4-0.101,0.5-0.2c0.2-0.1,0.3-0.3,0.5-0.5
		c0.2-0.199,0.3-0.4,0.4-0.699c0.1-0.301,0.3-0.601,0.399-0.9l0.2-1.9c-0.1-0.1-0.2-0.1-0.2-0.1c-0.1,0-0.2,0-0.2,0
		c-0.199,0-0.399,0-0.6,0.1s-0.4,0.2-0.6,0.301c-0.2,0.1-0.301,0.299-0.5,0.5c-0.101,0.199-0.301,0.399-0.4,0.6
		c-0.1,0.199-0.2,0.4-0.2,0.699c0,0.301-0.1,0.5-0.1,0.701C133.4,56,133.7,56.4,134.3,56.4z"/>
	<path fill="#FFFFFF" d="M140,51.6l-0.4,3.5c0,0.1,0,0.1,0,0.199c0,0.101,0,0.101,0,0.201c0,0.299,0.101,0.5,0.2,0.699
		c0.1,0.1,0.3,0.2,0.5,0.2s0.3,0,0.5-0.101c0.2-0.1,0.4-0.199,0.5-0.399c0.2-0.2,0.3-0.399,0.5-0.601c0.1-0.199,0.3-0.5,0.4-0.799
		l0.3-2.9h1l-0.7,5.6h-0.5c-0.1,0-0.2,0-0.3-0.1C141.9,57,141.9,57,141.9,56.9c0,0,0,0,0-0.101c0-0.1,0-0.1,0-0.199s0-0.1,0-0.2
		s0-0.101,0-0.101V55.9c-0.3,0.5-0.6,0.8-1,1.101C140.5,57.2,140.2,57.4,139.8,57.4s-0.7-0.101-1-0.399
		c-0.2-0.301-0.3-0.701-0.3-1.201c0-0.1,0-0.1,0-0.199s0-0.2,0-0.2l0.399-3.5H140V51.6z"/>
	<path fill="#FFFFFF" d="M144.9,56.1L144.9,56.1c0-0.1,0-0.2,0-0.2c0-0.101,0-0.2,0-0.3s0-0.2,0-0.4l0.301-2.8H144.6h-0.1v-0.101
		c0,0,0,0,0-0.1v-0.1V52V51.9l0.899-0.101l0.4-1.699c0-0.1,0-0.1,0.1-0.1L146,49.9h0.5l-0.2,1.899h1.5l-0.1,0.701h-1.5L145.9,55.2
		c0,0.2,0,0.301,0,0.4s0,0.199,0,0.199c0,0.101,0,0.101,0,0.101l0,0c0,0.2,0,0.3,0.101,0.399c0.1,0.101,0.2,0.101,0.399,0.101
		c0.101,0,0.2,0,0.301,0c0.1,0,0.1-0.101,0.199-0.101c0.101,0,0.101-0.1,0.101-0.1h0.1h0.101c0,0,0,0,0.1,0.1l0.2,0.5
		c-0.2,0.201-0.4,0.301-0.601,0.4c-0.199,0.1-0.5,0.1-0.699,0.1c-0.4,0-0.601-0.1-0.801-0.299C145.2,56.799,144.9,56.5,144.9,56.1z"
		/>
	<path fill="#FFFFFF" d="M152.9,52.799c0,0.201,0,0.5-0.1,0.701c-0.1,0.199-0.3,0.399-0.5,0.5c-0.3,0.199-0.6,0.299-1.1,0.399
		s-1.101,0.2-1.801,0.3v0.1V54.9c0,0.5,0.101,0.899,0.301,1.101c0.199,0.299,0.5,0.399,1,0.399c0.199,0,0.3,0,0.5-0.101
		c0.1,0,0.3-0.1,0.399-0.1c0.101-0.1,0.2-0.1,0.3-0.199c0.101-0.101,0.2-0.101,0.2-0.201c0.101-0.1,0.101-0.1,0.2-0.1
		s0.1-0.1,0.2-0.1c0.1,0,0.1,0,0.2,0.1L152.9,56c-0.199,0.199-0.399,0.399-0.5,0.5c-0.199,0.1-0.399,0.299-0.5,0.299
		C151.7,56.9,151.5,57,151.3,57s-0.4,0.1-0.7,0.1S150,57,149.7,56.9c-0.301-0.101-0.5-0.3-0.601-0.5c-0.2-0.2-0.3-0.399-0.399-0.7
		c-0.101-0.3-0.101-0.6-0.101-0.9c0-0.299,0-0.6,0.101-0.899c0.1-0.3,0.1-0.601,0.3-0.8c0.1-0.301,0.3-0.5,0.399-0.7
		c0.2-0.2,0.4-0.399,0.601-0.601c0.2-0.199,0.5-0.299,0.7-0.399c0.3-0.101,0.5-0.101,0.8-0.101s0.5,0,0.7,0.101
		c0.199,0.101,0.399,0.2,0.5,0.3c0.1,0.1,0.199,0.301,0.3,0.4C153.1,52.2,152.9,52.7,152.9,52.799z M151.3,52.2
		c-0.2,0-0.4,0-0.6,0.1c-0.2,0.101-0.4,0.201-0.5,0.4c-0.101,0.2-0.301,0.4-0.4,0.6c-0.1,0.201-0.2,0.5-0.2,0.701
		c0.601-0.101,1-0.101,1.4-0.201c0.399-0.1,0.6-0.199,0.8-0.299c0.2-0.101,0.3-0.201,0.4-0.301c0.1-0.1,0.1-0.199,0.1-0.4
		c0-0.1,0-0.1,0-0.199s-0.1-0.1-0.1-0.2c-0.101-0.101-0.101-0.101-0.301-0.101C151.7,52.299,151.4,52.2,151.3,52.2z M153,49.2
		l-1.4,1.4c-0.1,0.1-0.1,0.1-0.2,0.1c-0.1,0-0.1,0-0.199,0H150.6l0.9-1.3c0.1-0.101,0.1-0.101,0.2-0.2c0.1,0,0.199-0.1,0.3-0.1h1
		V49.2z"/>
	<path fill="#FFFFFF" d="M162.3,57.2h-0.8c-0.101,0-0.2,0-0.2-0.1s-0.1-0.1-0.1-0.2L160.8,55h-3.2L156.7,56.9
		c0,0.101-0.101,0.101-0.2,0.2c-0.101,0-0.101,0.1-0.2,0.1h-0.8l3.899-7.9h1L162.3,57.2z M157.9,54.2h2.7l-0.7-3.3
		c0-0.101,0-0.2-0.1-0.3s0-0.301-0.1-0.4c-0.101,0.1-0.101,0.301-0.2,0.4c-0.101,0.1-0.101,0.199-0.2,0.3L157.9,54.2z"/>
	<path fill="#FFFFFF" d="M163.3,57.2l0.7-5.6h0.5c0.2,0,0.3,0.1,0.3,0.3L164.7,53c0.3-0.5,0.6-0.9,1-1.101
		c0.399-0.2,0.8-0.399,1.199-0.399c0.4,0,0.7,0.1,1,0.399c0.2,0.3,0.301,0.7,0.301,1.2c0,0.1,0,0.1,0,0.199c0,0.101,0,0.201,0,0.201
		l-0.4,3.5h-1l0.4-3.5c0-0.101,0-0.101,0-0.201c0-0.1,0-0.1,0-0.199c0-0.301-0.101-0.5-0.2-0.7c-0.101-0.101-0.3-0.2-0.5-0.2
		s-0.4,0-0.5,0.1c-0.2,0.101-0.4,0.201-0.5,0.4c-0.2,0.2-0.3,0.4-0.5,0.6c-0.101,0.201-0.3,0.5-0.4,0.801l-0.3,2.8h-1V57.2z"/>
	<path fill="#FFFFFF" d="M169.9,56.1L169.9,56.1c0-0.1,0-0.2,0-0.2c0-0.101,0-0.2,0-0.3s0-0.2,0-0.4l0.301-2.8H169.6h-0.1v-0.101
		c0,0,0,0,0-0.1v-0.1V52V51.9l0.899-0.101l0.4-1.699c0-0.1,0-0.1,0.1-0.1L171,49.9h0.5l-0.2,1.899h1.5l-0.1,0.701h-1.5L170.9,55.2
		c0,0.2,0,0.301,0,0.4s0,0.199,0,0.199c0,0.101,0,0.101,0,0.101l0,0c0,0.2,0,0.3,0.101,0.399c0.1,0.101,0.2,0.101,0.399,0.101
		c0.101,0,0.2,0,0.301,0c0.1,0,0.1-0.101,0.199-0.101c0.101,0,0.101-0.1,0.101-0.1h0.1h0.101c0,0,0,0,0.1,0.1l0.2,0.5
		c-0.2,0.201-0.4,0.301-0.601,0.4c-0.199,0.1-0.5,0.1-0.699,0.1c-0.4,0-0.601-0.1-0.801-0.299C170.2,56.799,169.9,56.5,169.9,56.1z"
		/>
	<path fill="#FFFFFF" d="M175.2,51.6l-0.7,5.6h-1l0.7-5.6H175.2z M175.6,49.799c0,0.101,0,0.201-0.1,0.301
		c0,0.1-0.101,0.199-0.2,0.199c-0.1,0.101-0.1,0.101-0.2,0.201c-0.1,0-0.2,0.1-0.3,0.1s-0.2,0-0.2-0.1c-0.1,0-0.2-0.101-0.2-0.201
		c-0.1-0.1-0.1-0.1-0.1-0.199s-0.1-0.2-0.1-0.301c0-0.1,0-0.199,0.1-0.299c0-0.101,0.1-0.201,0.1-0.201
		c0.101-0.1,0.101-0.1,0.2-0.199c0.101,0,0.2-0.1,0.2-0.1c0.1,0,0.2,0,0.3,0.1c0.101,0,0.2,0.1,0.2,0.199
		c0,0.101,0.1,0.101,0.2,0.201C175.5,49.7,175.6,49.799,175.6,49.799z"/>
	<path fill="#FFFFFF" d="M176.6,53.5h2.5l-0.1,0.799h-2.5L176.6,53.5z"/>
	<path fill="#FFFFFF" d="M184.3,57.2h-0.5c-0.1,0-0.2,0-0.3-0.1c0-0.1-0.101-0.1-0.101-0.2l0.101-1.101
		c-0.101,0.201-0.3,0.4-0.4,0.601c-0.2,0.2-0.3,0.399-0.5,0.5s-0.3,0.2-0.5,0.3s-0.399,0.1-0.6,0.1s-0.4,0-0.601-0.1
		c-0.199-0.1-0.3-0.199-0.5-0.4c-0.1-0.199-0.199-0.399-0.3-0.6C180,56,180,55.7,180,55.4s0-0.7,0.1-1
		c0.101-0.3,0.2-0.601,0.4-0.899c0.2-0.301,0.3-0.5,0.5-0.801c0.2-0.199,0.5-0.4,0.7-0.6c0.3-0.2,0.5-0.301,0.8-0.4
		s0.6-0.1,0.899-0.1c0.2,0,0.5,0,0.7,0.1s0.4,0.1,0.7,0.2L184.3,57.2z M181.9,56.4c0.2,0,0.4-0.101,0.5-0.2
		c0.2-0.1,0.301-0.3,0.5-0.5c0.2-0.199,0.301-0.4,0.4-0.699c0.1-0.301,0.3-0.601,0.4-0.9l0.199-1.9c-0.1-0.1-0.199-0.1-0.199-0.1
		c-0.101,0-0.2,0-0.2,0c-0.2,0-0.4,0-0.601,0.1c-0.199,0.1-0.399,0.2-0.6,0.301c-0.2,0.1-0.3,0.299-0.5,0.5
		c-0.2,0.199-0.3,0.399-0.4,0.6c-0.1,0.199-0.199,0.4-0.199,0.699c0,0.301-0.101,0.5-0.101,0.701C181,56,181.3,56.4,181.9,56.4z
		 M185,50.7H184.4h-0.1c0,0-0.1,0-0.1-0.1l-0.5-0.7l0,0l0,0l0,0l0,0l-0.7,0.7c0,0-0.101,0-0.101,0.1s-0.1,0-0.1,0h-0.7l1.3-1.4h0.9
		L185,50.7z"/>
	<path fill="#FFFFFF" d="M190.1,53.1c0,0.199,0,0.3-0.1,0.5c-0.101,0.199-0.101,0.3-0.2,0.4c-0.1,0.1-0.1,0.199-0.2,0.399
		c-0.1,0.101-0.1,0.2-0.2,0.3c-0.1,0.1-0.1,0.2-0.199,0.301c0,0.1-0.101,0.199-0.101,0.399s0,0.3,0.101,0.399
		c0.1,0.101,0.199,0.301,0.199,0.4s0.2,0.301,0.2,0.4s0.101,0.3,0.101,0.6c0,0.301-0.101,0.5-0.2,0.7
		c-0.101,0.2-0.3,0.399-0.5,0.601c-0.2,0.199-0.5,0.299-0.8,0.399c-0.301,0.101-0.7,0.2-1.101,0.2c-0.3,0-0.6,0-0.899-0.1
		c-0.301-0.101-0.5-0.201-0.7-0.301s-0.3-0.3-0.4-0.4c-0.1-0.199-0.2-0.399-0.2-0.6c0-0.3,0.101-0.5,0.2-0.699
		c0.101-0.201,0.3-0.4,0.601-0.5c0.199-0.101,0.5-0.201,0.8-0.301s0.6-0.1,1-0.1c0.1,0,0.3,0,0.399,0c0.101,0,0.301,0,0.4,0
		c0-0.1-0.1-0.1-0.1-0.2s0-0.2,0-0.2c0-0.1,0-0.199,0.1-0.4c0-0.1,0.1-0.299,0.2-0.399c-0.101,0.101-0.3,0.2-0.5,0.2
		c-0.2,0.1-0.4,0.1-0.601,0.1c-0.199,0-0.399,0-0.6-0.1s-0.3-0.2-0.5-0.301c-0.1-0.1-0.2-0.299-0.3-0.5
		C185.9,54.1,185.9,53.9,185.9,53.6c0-0.301,0-0.5,0.101-0.801c0.1-0.299,0.2-0.5,0.399-0.699c0.2-0.2,0.4-0.4,0.7-0.5
		s0.601-0.2,1-0.2c0.4,0,0.8,0.101,1.101,0.3h1.5V52c0,0.1,0,0.1-0.101,0.199c0,0.1-0.1,0.1-0.2,0.1L189.7,52.4
		c0,0.101,0.1,0.2,0.1,0.3C190.1,52.9,190.1,53,190.1,53.1z M189.1,57.299c0-0.1,0-0.199,0-0.299c0-0.101,0-0.201-0.1-0.201
		c-0.2,0-0.4-0.1-0.601-0.1c-0.199,0-0.3,0-0.5,0c-0.3,0-0.6,0-0.8,0.1C186.9,56.9,186.7,56.9,186.6,57
		c-0.1,0.1-0.2,0.199-0.3,0.299c-0.1,0.101-0.1,0.201-0.1,0.4c0,0.301,0.1,0.5,0.3,0.6C186.7,58.4,187,58.5,187.4,58.5
		c0.2,0,0.5,0,0.7-0.101s0.4-0.101,0.5-0.3c0.101-0.1,0.3-0.2,0.3-0.4C189,57.6,189.1,57.5,189.1,57.299z M188,54.7
		c0.2,0,0.399,0,0.5-0.1c0.1-0.1,0.3-0.2,0.399-0.301c0.101-0.1,0.2-0.299,0.2-0.5c0.101-0.199,0.101-0.399,0.101-0.5
		c0-0.299-0.101-0.6-0.2-0.699c-0.101-0.1-0.4-0.2-0.7-0.2c-0.2,0-0.4,0-0.5,0.101c-0.2,0.1-0.3,0.199-0.4,0.299
		c-0.1,0.101-0.199,0.301-0.199,0.5c-0.101,0.201-0.101,0.4-0.101,0.5c0,0.301,0.101,0.601,0.2,0.801
		C187.5,54.6,187.7,54.7,188,54.7z"/>
	<path fill="#FFFFFF" d="M195.8,52.799c0,0.201,0,0.5-0.1,0.701C195.6,53.7,195.4,53.9,195.2,54C194.9,54.2,194.6,54.299,194.1,54.4
		s-1.1,0.2-1.8,0.3v0.1V54.9c0,0.5,0.1,0.899,0.3,1.101c0.2,0.299,0.5,0.399,1,0.399c0.2,0,0.3,0,0.5-0.101c0.101,0,0.3-0.1,0.4-0.1
		c0.1-0.1,0.2-0.1,0.3-0.199c0.1-0.101,0.2-0.101,0.2-0.201c0.1-0.1,0.1-0.1,0.2-0.1c0.1,0,0.1-0.1,0.199-0.1
		c0.101,0,0.101,0,0.2,0.1L195.8,56c-0.2,0.199-0.4,0.399-0.5,0.5c-0.2,0.1-0.4,0.299-0.5,0.299C194.6,56.9,194.4,57,194.2,57
		c-0.2,0-0.4,0.1-0.7,0.1s-0.601-0.1-0.9-0.2s-0.5-0.3-0.6-0.5c-0.2-0.2-0.3-0.399-0.4-0.7c-0.1-0.3-0.1-0.6-0.1-0.9
		c0-0.299,0-0.6,0.1-0.899c0.101-0.3,0.101-0.601,0.3-0.8c0.101-0.301,0.301-0.5,0.4-0.7c0.2-0.2,0.4-0.399,0.6-0.601
		c0.2-0.199,0.5-0.299,0.7-0.399c0.3-0.101,0.5-0.101,0.8-0.101c0.301,0,0.5,0,0.7,0.101s0.4,0.2,0.5,0.3
		c0.101,0.1,0.2,0.301,0.3,0.4C196,52.2,195.8,52.7,195.8,52.799z M194.2,52.2c-0.2,0-0.4,0-0.601,0.1
		c-0.2,0.101-0.399,0.201-0.5,0.4c-0.1,0.2-0.3,0.4-0.399,0.6c-0.101,0.201-0.2,0.5-0.2,0.701c0.6-0.101,1-0.101,1.399-0.201
		c0.4-0.1,0.601-0.199,0.801-0.299C194.9,53.4,195,53.299,195.1,53.2c0.101-0.1,0.101-0.199,0.101-0.4c0-0.1,0-0.1,0-0.199
		s-0.101-0.1-0.101-0.2c-0.1-0.101-0.1-0.101-0.3-0.101S194.3,52.2,194.2,52.2z"/>
</g>
</svg>
